<!--?xml version="1.0" standalone="no"?-->
              <svg id="sw-js-blob-svg" viewBox="0 0 100 100" xmlns="http://www.w3.org/2000/svg" version="1.1">
                    <defs> 
                        <linearGradient id="sw-gradient" x1="0" x2="1" y1="1" y2="0">
                            <stop id="stop1" stop-color="rgba(127, 0, 255, 1)" offset="0%"></stop>
                            <stop id="stop2" stop-color="rgba(246.587, 130.255, 246.587, 1)" offset="100%"></stop>
                        </linearGradient>
                    </defs>
                <path fill="url(#sw-gradient)" d="M21.6,-30.6C28.4,-24.8,34.5,-19,37.5,-11.7C40.5,-4.5,40.4,4.3,37.5,11.9C34.6,19.5,29,25.9,22.3,30.4C15.6,35,7.8,37.6,-0.6,38.4C-9,39.2,-18,38.1,-25,33.7C-32,29.3,-37.1,21.5,-38.7,13.3C-40.4,5.1,-38.6,-3.4,-36.1,-12C-33.7,-20.6,-30.5,-29.1,-24.4,-35.2C-18.3,-41.3,-9.1,-44.9,-0.9,-43.7C7.4,-42.5,14.8,-36.5,21.6,-30.6Z" width="100%" height="100%" transform="translate(50 50)" stroke-width="0" style="transition: all 0.3s ease 0s;" stroke="url(#sw-gradient)"></path>
              </svg>